<svg width="132" height="40" viewBox="0 0 132 40" fill="none" xmlns="http://www.w3.org/2000/svg">
<path d="M104.269 9.85182H108.631V29.9598H104.269V9.85182Z" fill="#17124B"/>
<path d="M126.616 29.9598L121.599 23.0899L116.581 29.9598H111.525L119.09 19.6163L111.911 9.85182H116.929L121.56 16.22L126.191 9.85182H131.247L124.069 19.6549L131.595 29.9598H126.616Z" fill="#17124B"/>
<path d="M91.1086 9.5816C88.5999 9.5816 86.3228 10.7008 84.779 12.4376C83.2352 10.7008 80.9967 9.5816 78.4494 9.5816C73.818 9.5816 70.0356 13.3639 70.0356 17.9953V29.9984H74.2425V17.9953C74.2425 15.6796 76.1337 13.7885 78.4494 13.7885C80.7651 13.7885 82.6563 15.6796 82.6563 17.9953V29.9984H86.8631V17.9953C86.8631 15.6796 88.7543 13.7885 91.07 13.7885C93.3857 13.7885 95.2769 15.6796 95.2769 17.9953V29.9984H99.4838V17.9953C99.5224 13.3253 95.74 9.5816 91.1086 9.5816Z" fill="#17124B"/>
<path d="M56.3343 36.4438H53.0537V32.3913L56.3343 32.3527C59.6921 32.3527 60.9271 30.7317 60.9271 27.374V9.85182H65.3656V27.4126C65.327 33.2404 62.1236 36.4438 56.3343 36.4438Z" fill="#17124B"/>
<path d="M14.5746 2.40291L7.47314 9.50442L10.059 12.1289L17.1605 5.02738C18.8973 3.2906 21.6762 3.252 23.4901 4.91159L25.6515 7.03433L28.2373 4.44845L26.076 2.28712C22.8726 -0.800493 17.7394 -0.761897 14.5746 2.40291Z" fill="#FC1264"/>
<path d="M23.0272 30.3458L30.7849 22.5882L31.4796 21.8935C32.5216 20.8514 32.5216 19.1146 31.4796 18.0725L30.7849 17.3778L23.1044 9.6974L22.4097 9.00268C21.3676 7.96061 19.6308 7.96061 18.5888 9.00268L17.8941 9.6974L10.0978 17.3778L9.40313 18.0725C8.36106 19.1146 8.36106 20.8514 9.40313 21.8935L10.0978 22.5882L17.7783 30.2686L18.473 30.9633C19.5151 32.0054 21.2518 32.0054 22.2939 30.9633L23.0272 30.3458ZM12.7223 20.0023L20.4799 12.2833L28.1604 19.9637L20.4027 27.7213L12.7223 20.0023Z" fill="#17124B"/>
<path d="M23.6447 34.9772C21.9079 36.714 19.1291 36.7526 17.3151 35.093L15.1538 32.9317L12.5293 35.5562L14.6906 37.7175C17.9326 40.8051 23.0658 40.7665 26.2306 37.5631L33.3707 30.423L30.7848 27.8371L23.6447 34.9772Z" fill="#25CDE3"/>
<path d="M33.4092 25.2126L34.2969 26.1003L33.4092 25.2126Z" fill="#25CDE3"/>
<path d="M4.84863 12.1289L6.12227 13.4411L4.84863 12.1289Z" fill="#FC1264"/>
<path d="M5.42753 23.2443C3.69075 21.5075 3.65215 18.7286 5.31175 16.9147L7.47308 14.7533L4.84861 12.1289L2.68728 14.2902C-0.400336 17.5322 -0.36174 22.6654 2.84166 25.8302L9.94317 32.9317L12.529 30.3458L5.42753 23.2443Z" fill="#FDB42B"/>
<path d="M38.0404 14.1358L30.9389 7.03433L28.353 9.62021L35.4545 16.7217C37.1913 18.4585 37.2299 21.2373 35.5703 23.0513L33.4476 25.2126L36.0335 27.7985L38.1948 25.6372C41.2438 22.4338 41.2052 17.3392 38.0404 14.1358Z" fill="#22D685"/>
</svg>
